<?xml version="1.0" encoding="UTF-8" standalone="no"?>
<svg width="101px" height="102px" viewBox="0 0 101 102" version="1.1" xmlns="http://www.w3.org/2000/svg" xmlns:xlink="http://www.w3.org/1999/xlink" xmlns:sketch="http://www.bohemiancoding.com/sketch/ns">
    <title>Untitled</title>
    <description>Created with Sketch (http://www.bohemiancoding.com/sketch)</description>
    <defs></defs>
    <g id="Page-1" stroke="none" stroke-width="1" fill="none" fill-rule="evenodd" sketch:type="MSPage">
        <g id="noun_231281_cc" sketch:type="MSLayerGroup" transform="translate(3.000000, -2.000000)" fill="#000000">
            <g id="Group" transform="translate(0.000000, -0.362200)" sketch:type="MSShapeGroup">
                <g transform="translate(0.000000, 0.362200)" id="Shape">
                    <path d="M47.4969741,2.56599412 C19.917587,2.56599412 -2.58687059,25.2954728 -2.58687059,53.1506773 C-2.58687059,81.0058855 19.917587,103.537764 47.4969741,103.537764 C75.0763632,103.537764 97.3851788,81.0058855 97.3851788,53.1506773 C97.3851788,25.2954728 75.0763632,2.56599412 47.4969741,2.56599412 L47.4969741,2.56599412 Z M47.4969741,8.49388667 C71.8973287,8.49388667 91.5159783,28.5060846 91.5159783,53.1506773 C91.5159783,77.7952693 71.8973287,97.6098714 47.4969741,97.6098714 C23.0966221,97.6098714 3.28232996,77.7952693 3.28232996,53.1506773 C3.28232996,28.5060846 23.0966221,8.49388667 47.4969741,8.49388667 L47.4969741,8.49388667 Z M47.4969741,29.0439142 C39.4100334,29.0439142 32.6283327,35.6957166 32.6283327,43.8636456 C32.6283327,45.5551527 33.9859935,46.9263901 35.660753,46.9263901 C37.3355125,46.9263901 38.6931733,45.5551527 38.6931733,43.8636456 C38.6931733,38.9063283 42.5889858,34.9718068 47.4969741,34.9718068 C52.404968,34.9718068 56.3007749,38.9063283 56.3007749,43.8636456 C56.3007749,47.3814164 54.3030863,50.3077555 51.4097745,51.7675023 C47.9065629,53.3644905 45.9424054,56.5665003 45.1492939,59.6713591 C44.3561824,62.7768122 44.5623738,65.9577453 44.5623738,68.7607943 C44.4873097,69.8681185 45.0296468,70.9253593 45.9685793,71.5020745 C46.9075118,72.0787897 48.0864364,72.0787897 49.0253689,71.5020745 C49.9643015,70.9253593 50.5066385,69.8681185 50.4315744,68.7607943 C50.4315744,65.9571509 50.3037366,63.0876045 50.8228544,61.054534 C51.3419722,59.0220579 52.2073184,57.8987232 53.9530947,57.1026056 C58.7853944,54.6655349 62.1699755,49.6604511 62.1699755,43.8636456 C62.1699755,35.6957166 55.5839211,29.0439142 47.4969741,29.0439142 L47.4969741,29.0439142 Z M47.4969741,75.2814761 C45.8726073,75.2814761 44.5623738,76.6048157 44.5623738,78.2454224 C44.5623738,79.8860291 45.8726073,81.2093687 47.4969741,81.2093687 C49.1213409,81.2093687 50.4315744,79.8860291 50.4315744,78.2454224 C50.4315744,76.6048157 49.1213409,75.2814761 47.4969741,75.2814761 L47.4969741,75.2814761 Z"></path>
                </g>
            </g>
        </g>
    </g>
</svg>