<?xml version="1.0" encoding="UTF-8" standalone="no"?>
<svg width="101px" height="101px" viewBox="0 0 101 101" version="1.1" xmlns="http://www.w3.org/2000/svg" xmlns:xlink="http://www.w3.org/1999/xlink" xmlns:sketch="http://www.bohemiancoding.com/sketch/ns">
    <title>Untitled 2</title>
    <description>Created with Sketch (http://www.bohemiancoding.com/sketch)</description>
    <defs></defs>
    <g id="Page-1" stroke="none" stroke-width="1" fill="none" fill-rule="evenodd" sketch:type="MSPage">
        <g id="noun_145799_cc" sketch:type="MSLayerGroup" transform="translate(1.000000, 1.000000)" fill="#000000">
            <path d="M50.0244444,20.1455556 C33.5488889,20.1455556 20.1455556,33.5488889 20.1455556,50.0244444 C20.1455556,51.8655556 18.6533333,53.3577778 16.8122222,53.3577778 C14.9711111,53.3577778 13.4788889,51.8655556 13.4788889,50.0244444 C13.4788889,29.8733333 29.8733333,13.4788889 50.0244444,13.4788889 C57.0577778,13.4788889 63.8933333,15.4911111 69.7944444,19.2988889 C71.3411111,20.2966667 71.7855556,22.36 70.7877778,23.9066667 C69.7922222,25.4522222 67.7266667,25.8988889 66.18,24.9 C61.3588889,21.7888889 55.7733333,20.1455556 50.0244444,20.1455556 L50.0244444,20.1455556 Z M100.268889,50.0244444 C100.268889,77.7733333 77.7733333,100.268889 50.0244444,100.268889 C22.2755556,100.268889 -0.22,77.7733333 -0.22,50.0244444 C-0.22,22.2755556 22.2755556,-0.22 50.0244444,-0.22 C77.7733333,-0.22 100.268889,22.2755556 100.268889,50.0244444 L100.268889,50.0244444 Z M93.6022222,50.0244444 C93.6022222,25.9955556 74.0533333,6.44666667 50.0244444,6.44666667 C25.9955556,6.44666667 6.44666667,25.9955556 6.44666667,50.0244444 C6.44666667,74.0533333 25.9955556,93.6022222 50.0244444,93.6022222 C74.0533333,93.6022222 93.6022222,74.0533333 93.6022222,50.0244444 L93.6022222,50.0244444 Z M73.3955556,26.2166667 L53.4155556,42.8611111 C52.3855556,42.3722222 51.2388889,42.0911111 50.0244444,42.0911111 C45.6433333,42.0911111 42.0911111,45.6433333 42.0911111,50.0244444 C42.0911111,54.4055556 45.6433333,57.9577778 50.0244444,57.9577778 C54.4055556,57.9577778 57.9577778,54.4055556 57.9577778,50.0244444 C57.9577778,49.3177778 57.8566667,48.6355556 57.6833333,47.9833333 L77.6633333,31.34 C79.0777778,30.1611111 79.2688889,28.06 78.0911111,26.6455556 C76.9133333,25.2311111 74.8111111,25.0388889 73.3955556,26.2166667 L73.3955556,26.2166667 Z" id="Shape" sketch:type="MSShapeGroup"></path>
        </g>
    </g>
</svg>