<?xml version="1.0" encoding="UTF-8" standalone="no"?>
<svg width="101px" height="101px" viewBox="0 0 101 101" version="1.1" xmlns="http://www.w3.org/2000/svg" xmlns:xlink="http://www.w3.org/1999/xlink" xmlns:sketch="http://www.bohemiancoding.com/sketch/ns">
    <title>Untitled 3</title>
    <description>Created with Sketch (http://www.bohemiancoding.com/sketch)</description>
    <defs></defs>
    <g id="Page-1" stroke="none" stroke-width="1" fill="none" fill-rule="evenodd" sketch:type="MSPage">
        <g id="noun_140411_cc" sketch:type="MSLayerGroup" transform="translate(1.000000, 1.000000)" fill="#000000">
            <g id="Group" sketch:type="MSShapeGroup">
                <path d="M67.2173913,58.9565217 C65.9130435,56.7826087 62.4347826,55.9130435 60.2608696,57.6521739 L55.0434783,61.1304348 C54.173913,60.6956522 52,59.3913043 47.2173913,52.8695652 C42,45.0434783 42.4347826,42 42.4347826,41.5652174 L47.6521739,38.0869565 C49.826087,36.7826087 50.6956522,33.3043478 48.9565217,31.1304348 L42,20.6956522 L41.5652174,20.2608696 C41.1304348,20.2608696 39.826087,18.9565217 37.6521739,18.9565217 C35.4782609,18.9565217 32.8695652,19.826087 30.6956522,21.5652174 L30.2608696,22.4347826 C25.4782609,29.3913043 24.6086957,37.6521739 24.6086957,38.0869565 L24.6086957,38.5217391 L24.6086957,38.9565217 C26.7826087,48.5217391 31.5652174,56.3478261 34.6086957,60.6956522 L35.0434783,61.5652174 L35.4782609,62 C38.9565217,67.2173913 44.173913,73.7391304 51.5652174,78.9565217 L52,79.3913043 C52,79.3913043 56.7826087,81.1304348 62.8695652,81.1304348 C65.0434783,81.1304348 66.7826087,81.1304348 68.9565217,80.6956522 L69.826087,80.2608696 C76.7826087,75.9130435 75.4782609,71.1304348 75.4782609,70.6956522 L67.2173913,58.9565217 L67.2173913,58.9565217 Z M67.2173913,75.9130435 C65.9130435,76.3478261 64.173913,76.3478261 62.4347826,76.3478261 C58.0869565,76.3478261 54.173913,75.4782609 53.3043478,75.0434783 C46.3478261,70.2608696 42,64.6086957 38.5217391,59.3913043 L37.6521739,58.0869565 C35.0434783,53.7391304 30.2608696,46.7826087 28.0869565,38.0869565 C28.0869565,36.7826087 29.3913043,30.2608696 32.8695652,25.0434783 C36.7826087,22.8695652 38.0869565,23.3043478 38.9565217,23.3043478 L45.4782609,33.7391304 L45.4782609,34.6086957 L40.6956522,37.6521739 C39.826087,38.0869565 38.9565217,38.5217391 38.5217391,39.826087 C37.2173913,42.8695652 38.9565217,48.0869565 43.7391304,55.0434783 C48.5217391,62 52.4347826,65.4782609 55.4782609,65.4782609 C56.7826087,65.4782609 57.6521739,65.0434783 58.0869565,64.173913 L62.8695652,61.1304348 C62.8695652,61.1304348 63.3043478,61.1304348 63.3043478,61.5652174 L70.2608696,71.5652174 C70.6956522,72.4347826 70.2608696,74.173913 67.2173913,75.9130435 L67.2173913,75.9130435 Z" id="Shape"></path>
                <path d="M49.826087,-0.173913043 C22.4347826,-0.173913043 -0.173913043,22.4347826 -0.173913043,49.826087 C-0.173913043,77.2173913 22.4347826,99.826087 49.826087,99.826087 C77.2173913,99.826087 99.826087,77.2173913 99.826087,49.826087 C99.826087,22.4347826 77.2173913,-0.173913043 49.826087,-0.173913043 L49.826087,-0.173913043 Z M49.826087,95.4782609 C24.6086957,95.4782609 4.17391304,75.0434783 4.17391304,49.826087 C4.17391304,24.6086957 24.6086957,4.17391304 49.826087,4.17391304 C75.0434783,4.17391304 95.4782609,24.6086957 95.4782609,49.826087 C95.4782609,75.0434783 75.0434783,95.4782609 49.826087,95.4782609 L49.826087,95.4782609 Z" id="Shape"></path>
            </g>
        </g>
    </g>
</svg>