<?xml version="1.0" encoding="UTF-8" standalone="no"?>
<svg width="101px" height="79px" viewBox="0 0 101 79" version="1.1" xmlns="http://www.w3.org/2000/svg" xmlns:xlink="http://www.w3.org/1999/xlink" xmlns:sketch="http://www.bohemiancoding.com/sketch/ns">
    <title>Untitled</title>
    <description>Created with Sketch (http://www.bohemiancoding.com/sketch)</description>
    <defs></defs>
    <g id="Page-1" stroke="none" stroke-width="1" fill="none" fill-rule="evenodd" sketch:type="MSPage">
        <g id="noun_17798_cc" sketch:type="MSLayerGroup" transform="translate(1.000000, 1.000000)" fill="#000000">
            <g id="Group" sketch:type="MSShapeGroup">
                <path d="M100,77.0768219 C100,77.5875616 99.6159574,78 99.1393617,78 L0.844680851,78 C0.370212766,78 -0.014893617,77.5875616 -0.014893617,77.0768219 L-0.014893617,73.6907671 C-0.014893617,73.1800274 0.370212766,72.767589 0.844680851,72.767589 L99.1393617,72.767589 C99.6148936,72.767589 100,73.1810959 100,73.6907671 L100,77.0768219 L100,77.0768219 Z" id="Shape"></path>
                <path d="M60.6521277,13.1894795 L39.3351064,35.2656164 L39.8053191,40.0460548 L60.6319149,18.4774521 L60.6521277,13.1894795 Z" id="Shape"></path>
                <path d="M60.2202128,23.6799452 L47.993617,36.343726 L48.262766,39.0854795 L60.2095745,26.7133973 L60.2202128,23.6799452 Z" id="Shape"></path>
                <path d="M52.7914894,13.1894795 L40.5638298,25.8543288 L40.8340426,28.5960822 L52.7797872,16.2229315 L52.7914894,13.1894795 Z" id="Shape"></path>
                <path d="M94.7010638,53.978137 C94.7010638,53.7569589 94.162766,53.4246575 93.5021277,53.4246575 L7.08404255,53.4246575 C6.4212766,53.4246575 5.88510638,53.7569589 5.88510638,53.978137 L-0.014893617,70.9618356 C-0.014893617,71.1819452 0.522340426,71.5890411 1.18404255,71.5890411 L98.8010638,71.5890411 C99.4638298,71.5890411 100,71.1819452 100,70.9618356 L94.7010638,53.978137 L94.7010638,53.978137 Z M61.4340426,70.5205479 L38.55,70.5205479 C38.3957447,70.5205479 38.2691489,70.4040822 38.2691489,70.3367671 L38.9723404,65.1663288 C38.9723404,65.0979452 39.0978723,65.0284932 39.2531915,65.0284932 L60.7893617,64.9590411 C60.943617,64.9590411 61.0702128,65.0113973 61.0702128,65.0787123 L61.7159574,70.3389041 C61.7170213,70.4062192 61.5914894,70.5205479 61.4340426,70.5205479 L61.4340426,70.5205479 Z M91.9297872,64.109589 L8.05744681,64.109589 C7.48723404,64.109589 7.02659574,63.9193973 7.02659574,63.8072055 L9.60319149,55.1406575 C9.60319149,55.0284658 10.0648936,54.9130685 10.6340426,54.9130685 L89.5638298,54.7976712 C90.1319149,54.7976712 90.593617,54.8842192 90.593617,54.9974795 L92.9595745,63.8125479 C92.9595745,63.9236712 92.4968085,64.109589 91.9297872,64.109589 L91.9297872,64.109589 Z" id="Shape"></path>
                <path d="M93.2021277,-0.129287671 L6.78404255,-0.129287671 C6.1212766,-0.129287671 5.58510638,0.409232877 5.58510638,1.07490411 L5.58510638,51.7930685 C5.58510638,52.4576712 6.1212766,52.9972603 6.78404255,52.9972603 L93.2021277,52.9972603 C93.8638298,52.9972603 94.4010638,52.4576712 94.4010638,51.7930685 L94.4010638,1.07490411 C94.4010638,0.409232877 93.8638298,-0.129287671 93.2021277,-0.129287671 L93.2021277,-0.129287671 Z M49.9957447,0.907150685 C50.5031915,0.907150685 50.912766,1.31852055 50.912766,1.82712329 C50.912766,2.33572603 50.5031915,2.74816438 49.9957447,2.74816438 C49.4893617,2.74816438 49.0797872,2.33572603 49.0797872,1.82712329 C49.0787234,1.31852055 49.4893617,0.907150685 49.9957447,0.907150685 L49.9957447,0.907150685 Z M89.8638298,47.7755342 C89.8638298,48.3343562 89.3829787,48.7873973 88.787234,48.7873973 L11.1978723,48.7873973 C10.6021277,48.7873973 10.1212766,48.3343562 10.1212766,47.7755342 L10.1212766,5.09243836 C10.1212766,4.53254795 10.6021277,4.07950685 11.1978723,4.07950685 L88.787234,4.07950685 C89.3829787,4.07950685 89.8638298,4.53254795 89.8638298,5.09243836 L89.8638298,47.7755342 L89.8638298,47.7755342 Z" id="Shape"></path>
            </g>
        </g>
    </g>
</svg>