<?xml version="1.0" encoding="UTF-8" standalone="no"?>
<svg width="100px" height="83px" viewBox="0 0 100 83" version="1.1" xmlns="http://www.w3.org/2000/svg" xmlns:xlink="http://www.w3.org/1999/xlink" xmlns:sketch="http://www.bohemiancoding.com/sketch/ns">
    <title>Untitled</title>
    <description>Created with Sketch (http://www.bohemiancoding.com/sketch)</description>
    <defs></defs>
    <g id="Page-1" stroke="none" stroke-width="1" fill="none" fill-rule="evenodd" sketch:type="MSPage">
        <g id="noun_137857_cc" sketch:type="MSLayerGroup" fill="#000000">
            <path d="M99.9534027,36.5151837 C99.8145138,35.9647727 99.376736,35.5424166 98.8278471,35.4255946 L98.1556249,35.2840604 L98.1556249,25.7799234 L99.2522916,24.8318686 C99.6856249,24.4589371 99.866736,23.8658412 99.7178471,23.3109371 C99.5689582,22.756033 99.116736,22.3370467 98.556736,22.2348275 L92.3956249,21.1048001 L92.3978471,13.1024987 L92.3956249,12.9373755 L93.5300693,11.9578686 C93.9622916,11.5838138 94.1445138,10.9907179 93.9956249,10.4369371 C93.846736,9.88090971 93.3945138,9.46192341 92.8345138,9.35970423 L43.0378471,0.27567683 C42.6511804,0.203786419 42.2545138,0.292526145 41.9334027,0.519430255 L3.34784711,27.7243344 C2.61895822,28.1332111 -0.0499306715,29.9855124 6.93285258e-05,35.1335398 C0.0567359952,40.7241426 3.32895822,43.2627727 3.46895822,43.3683618 C3.48784711,43.3829645 3.50895822,43.3919508 3.52895822,43.4054303 C3.56229155,43.4290193 3.59562488,43.4503618 3.63006933,43.4705809 C3.666736,43.4919234 3.70451377,43.509896 3.74340266,43.5278686 C3.77784711,43.5447179 3.81229155,43.5593207 3.85006933,43.5728001 C3.89229155,43.5885261 3.93451377,43.599759 3.97784711,43.6109919 C4.00229155,43.6188549 4.02562488,43.6289645 4.05006933,43.6345809 L6.32895822,44.1175946 C5.95895822,45.13417 5.70784711,46.4079782 5.72451377,48.0086631 C5.75229155,50.7786905 6.56895822,52.7983618 7.40340266,54.1451837 L5.63784711,55.3886631 C4.90451377,55.802033 2.24006933,57.6577042 2.29229155,62.7978686 C2.34784711,68.3884714 5.61895822,70.9327179 5.76229155,71.0326905 C5.88562488,71.1180604 6.13229155,71.249485 6.34118044,71.2977864 L58.5789582,82.3790193 C58.5845138,82.3801426 58.5900693,82.3823892 58.5956249,82.3835124 L60.4611804,82.7789097 C60.5611804,82.8002522 60.6634027,82.8103618 60.7634027,82.8103618 C61.1100693,82.8103618 61.4500693,82.6856768 61.7189582,82.4542796 L96.0511804,52.8062248 C96.4789582,52.4366631 96.6611804,51.8536768 96.5222916,51.3043892 C96.3822916,50.7539782 95.9456249,50.331622 95.3956249,50.2148001 L94.7822916,50.085622 L94.7822916,42.0754577 L99.4811804,38.0181426 C99.9100693,37.6474577 100.093403,37.0644714 99.9534027,36.5151837 L99.9534027,36.5151837 Z M58.2400693,41.9642522 C58.5878471,41.9642522 58.9278471,41.8395672 59.196736,41.6070467 L89.4678471,15.4670193 L89.4678471,24.9318412 L57.9678471,52.0165535 L57.9678471,41.9350467 C58.0600693,41.951896 58.1500693,41.9642522 58.2400693,41.9642522 L58.2400693,41.9642522 Z M5.62784711,30.8358412 L55.016736,41.3127453 L55.016736,51.3886357 L5.62784711,40.9330741 L5.62784711,30.8358412 L5.62784711,30.8358412 Z M7.92006933,68.58617 L7.92006933,58.4968001 L57.3078471,68.9759508 L57.3078471,79.0653207 L7.92006933,68.58617 L7.92006933,68.58617 Z M11.3756249,53.8093207 L11.3756249,45.1880878 L56.2878471,54.7146905 C56.2934027,54.7158138 56.2978471,54.7180604 56.3034027,54.7191837 L58.1689582,55.1145809 C58.2700693,55.1359234 58.3711804,55.146033 58.4711804,55.146033 C58.8178471,55.146033 59.1589582,55.0213481 59.4278471,54.7899508 L60.2445138,54.0834029 L60.7378471,54.1878686 L60.7378471,64.2738686 L11.3756249,53.8093207 L11.3756249,53.8093207 Z M91.8356249,52.5276494 L60.2700693,79.6943618 L60.2600693,69.5993755 C60.3500693,69.6173481 60.4411804,69.6274577 60.5322916,69.6274577 C60.8789582,69.6274577 61.2189582,69.503896 61.4878471,69.2713755 L63.1534027,67.8335672 L63.8900693,67.9897042 C63.9900693,68.0110467 64.0922916,68.0211563 64.1911804,68.0211563 C64.5389582,68.0211563 64.8789582,67.8964714 65.1478471,67.6650741 L91.8356249,44.6084714 L91.8356249,52.5276494 L91.8356249,52.5276494 Z M95.2622916,37.7440604 L63.7011804,64.9017864 L63.6900693,54.8112933 C63.7811804,54.8281426 63.8711804,54.8393755 63.9611804,54.8393755 C64.3089582,54.8393755 64.6489582,54.7146905 64.9178471,54.4832933 L95.266736,28.2747453 L95.2622916,37.7440604 L95.2622916,37.7440604 Z" id="Shape" sketch:type="MSShapeGroup"></path>
        </g>
    </g>
</svg>