<?xml version="1.0" encoding="UTF-8" standalone="no"?>
<svg width="100px" height="100px" viewBox="0 0 100 100" version="1.1" xmlns="http://www.w3.org/2000/svg" xmlns:xlink="http://www.w3.org/1999/xlink" xmlns:sketch="http://www.bohemiancoding.com/sketch/ns">
    <title>Untitled</title>
    <description>Created with Sketch (http://www.bohemiancoding.com/sketch)</description>
    <defs></defs>
    <g id="Page-1" stroke="none" stroke-width="1" fill="none" fill-rule="evenodd" sketch:type="MSPage">
        <g id="noun_31188_cc" sketch:type="MSLayerGroup" fill="#000000">
            <path d="M49.9997222,99.997375 C47.9197222,99.997375 45.8197222,99.8662639 43.7563889,99.607375 C40.9808333,99.2595972 38.8886111,96.8884861 38.8886111,94.0929306 L38.8886111,88.0951528 C38.8886111,87.5862639 38.5986111,87.1907083 38.1141667,87.0340417 C36.0952778,86.3884861 34.1097222,85.567375 32.2163889,84.5929306 C31.7697222,84.3640417 31.2752778,84.4395972 30.9186111,84.7962639 L26.6775,89.037375 C25.6241667,90.0907083 24.2286111,90.6707083 22.7486111,90.6707083 C21.5219444,90.6707083 20.3086111,90.2529306 19.3341667,89.4940417 C16.0408333,86.9329306 13.0697222,83.9629306 10.5075,80.667375 C8.79083333,78.4607083 8.98638889,75.3040417 10.9641667,73.3251528 L15.2052778,69.0840417 C15.5652778,68.7240417 15.6408333,68.2384861 15.4086111,67.7862639 C14.4375,65.8995972 13.6152778,63.9151528 12.9663889,61.8862639 C12.8097222,61.4007083 12.4130556,61.1107083 11.9041667,61.1107083 L5.90638889,61.1107083 C3.10972222,61.1107083 0.738611111,59.017375 0.390833333,56.2429306 C-0.126944444,52.0995972 -0.126944444,47.8984861 0.390833333,43.7562639 C0.738611111,40.9818195 3.10972222,38.8884861 5.90638889,38.8884861 L11.9030556,38.8884861 C12.4119444,38.8884861 12.8086111,38.5995972 12.9641667,38.1140417 C13.6119444,36.0895972 14.4341667,34.1051528 15.4063889,32.2151528 C15.6386111,31.7629306 15.5630556,31.277375 15.2030556,30.9184861 L10.9619444,26.677375 C8.98416667,24.6995972 8.78638889,21.5429306 10.5030556,19.3351528 C13.0675,16.0384861 16.0375,13.0684861 19.3319444,10.5062639 C20.3063889,9.74848612 21.5186111,9.33070834 22.7452778,9.33070834 C24.2263889,9.33070834 25.6208333,9.91070834 26.6741667,10.9640417 L30.9152778,15.2051528 C31.2708333,15.5607083 31.7652778,15.6395972 32.2119444,15.4084861 C34.1008333,14.4362639 36.0852778,13.6151528 38.1108333,12.9662639 C38.5986111,12.8107083 38.8886111,12.4129306 38.8886111,11.9040417 L38.8886111,5.9062639 C38.8886111,3.10959723 40.9808333,0.738486122 43.7552778,0.390708345 C47.8830556,-0.125958322 52.1197222,-0.124847211 56.2419444,0.390708345 C59.0175,0.738486122 61.1108333,3.10959723 61.1108333,5.9062639 L61.1108333,11.9029306 C61.1108333,12.4118195 61.4008333,12.8084861 61.8852778,12.9640417 C63.9097222,13.6118195 65.8941667,14.4340417 67.7841667,15.4062639 C68.2319444,15.6362639 68.7252778,15.5584861 69.0819444,15.2029306 L73.3230556,10.9618195 C74.3763889,9.90848612 75.7719444,9.32848612 77.2519444,9.32848612 C78.4786111,9.32848612 79.6908333,9.7462639 80.6652778,10.5040417 C83.9597222,13.0651528 86.9308333,16.0362639 89.4930556,19.3318195 C91.2108333,21.5395972 91.0141667,24.6962639 89.0352778,26.6751528 L84.7952778,30.9162639 C84.4352778,31.2762639 84.3586111,31.7607083 84.5919444,32.2129306 C85.5619444,34.0995972 86.3819444,36.0829306 87.0319444,38.1129306 C87.1897222,38.5984861 87.5852778,38.8884861 88.0941667,38.8884861 L94.0919444,38.8884861 C96.8886111,38.8884861 99.2586111,40.9807083 99.6075,43.7562639 C100.126389,47.8995972 100.126389,52.1007083 99.6075,56.2418195 C99.2608333,59.017375 96.8886111,61.1107083 94.0930556,61.1107083 L88.0952778,61.1107083 C87.5863889,61.1107083 87.1908333,61.4007083 87.0341667,61.8851528 C86.3886111,63.9051528 85.5675,65.8907083 84.5930556,67.7840417 C84.3608333,68.2362639 84.4363889,68.7218195 84.7963889,69.0818195 L89.0375,73.3229306 C91.0152778,75.3007083 91.2119444,78.457375 89.4952778,80.6651528 C86.9341667,83.9584861 83.9641667,86.9284861 80.6675,89.4929306 C79.6930556,90.2507083 78.4797222,90.6684861 77.2541667,90.6684861 C75.7719444,90.6684861 74.3763889,90.0895972 73.3241667,89.0351528 L69.0841667,84.7951528 C68.7275,84.4384861 68.2363889,84.3584861 67.7875,84.5918195 C65.8941667,85.5651528 63.9097222,86.3851528 61.8863889,87.0329306 C61.4008333,87.1895972 61.1108333,87.5851528 61.1108333,88.0940417 L61.1108333,94.0918195 C61.1108333,96.8884861 59.0175,99.2584861 56.2430556,99.607375 C54.1808333,99.8662639 52.0797222,99.997375 49.9997222,99.997375 L49.9997222,99.997375 Z M31.6897222,80.0151528 C32.5686111,80.0151528 33.4519444,80.2307083 34.2475,80.6395972 C35.9241667,81.5018195 37.6808333,82.2295972 39.4686111,82.8007083 C41.7808333,83.5418195 43.3330556,85.6695972 43.3330556,88.0940417 L43.3330556,94.0918195 C43.3330556,94.6618195 43.7441667,95.127375 44.3097222,95.197375 C48.0686111,95.6684861 51.9308333,95.6684861 55.6908333,95.197375 C56.2563889,95.127375 56.6663889,94.6618195 56.6663889,94.0929306 L56.6663889,88.0951528 C56.6663889,85.6695972 58.2175,83.5429306 60.5297222,82.8018195 C62.3208333,82.2284861 64.0775,81.5018195 65.7519444,80.6418195 C67.8741667,79.5507083 70.5386111,79.967375 72.2252778,81.6551528 L76.4652778,85.8940417 C76.6786111,86.107375 76.9575,86.2251528 77.2508333,86.2251528 C77.4230556,86.2251528 77.6830556,86.1840417 77.9375,85.9851528 C80.9430556,83.647375 83.6508333,80.9395972 85.9841667,77.9384861 C86.3341667,77.4884861 86.2952778,76.8695972 85.8930556,76.4662639 L81.6519444,72.2251528 C79.9375,70.5118195 79.5308333,67.9095972 80.6386111,65.7529306 C81.5008333,64.0762639 82.2286111,62.3207083 82.7997222,60.5318195 C83.5419444,58.217375 85.6697222,56.6662639 88.0941667,56.6662639 L94.0919444,56.6662639 C94.6619444,56.6662639 95.1275,56.2562639 95.1975,55.6895972 C95.6708333,51.9151528 95.6708333,48.0851528 95.1975,44.3084861 C95.1275,43.7440417 94.6619444,43.3329306 94.0930556,43.3329306 L88.0952778,43.3329306 C85.6697222,43.3329306 83.5419444,41.7807083 82.8019444,39.4695972 C82.2252778,37.6729306 81.4986111,35.9151528 80.6419444,34.247375 C79.5319444,32.0918195 79.9386111,29.4895972 81.6541667,27.7751528 L85.8941667,23.5340417 C86.2975,23.1307083 86.3352778,22.5118195 85.9863889,22.0629306 C83.6486111,19.057375 80.9419444,16.3495972 77.9386111,14.0140417 C77.6841667,13.8162639 77.4252778,13.7740417 77.2530556,13.7740417 C76.9586111,13.7740417 76.6797222,13.8918195 76.4663889,14.1051528 L72.2252778,18.3462639 C70.5352778,20.0351528 67.8730556,20.4507083 65.7530556,19.3595972 C64.0797222,18.4984861 62.3241667,17.7718195 60.5319444,17.197375 C58.2186111,16.457375 56.6663889,14.3295972 56.6663889,11.9040417 L56.6663889,5.90737501 C56.6663889,5.33737501 56.2563889,4.87293057 55.6908333,4.80181946 C51.9308333,4.33181946 48.0697222,4.33070834 44.3075,4.80181946 C43.7430556,4.87181946 43.3330556,5.3362639 43.3330556,5.9062639 L43.3330556,11.9040417 C43.3330556,14.3318195 41.7808333,16.4584861 39.4686111,17.1984861 C37.6763889,17.7729306 35.9197222,18.4995972 34.2475,19.3595972 C32.1230556,20.4529306 29.4630556,20.0340417 27.7741667,18.347375 L23.5330556,14.1051528 C23.3197222,13.8918195 23.0397222,13.7740417 22.7463889,13.7740417 C22.5741667,13.7740417 22.3152778,13.8151528 22.0608333,14.0129306 C19.0575,16.3484861 16.3497222,19.0562639 14.0119444,22.0618195 C13.6630556,22.5107083 13.7008333,23.1307083 14.1041667,23.5340417 L18.3452778,27.7751528 C20.0597222,29.4907083 20.4663889,32.0918195 19.3586111,34.247375 C18.4975,35.9207083 17.7697222,37.677375 17.1963889,39.4684861 C16.4586111,41.7807083 14.3308333,43.3329306 11.9041667,43.3329306 L5.9075,43.3329306 C5.3375,43.3329306 4.87305556,43.7429306 4.80194444,44.3084861 C4.32972222,48.0851528 4.32972222,51.9151528 4.80194444,55.6907083 C4.87194444,56.2562639 5.33638889,56.6662639 5.90638889,56.6662639 L11.9041667,56.6662639 C14.3308333,56.6662639 16.4575,58.2184861 17.1986111,60.5295972 C17.7730556,62.3240417 18.4997222,64.0807083 19.3597222,65.7507083 C20.4697222,67.907375 20.0630556,70.5084861 18.3475,72.2240417 L14.1063889,76.4651528 C13.7041667,76.8684861 13.6652778,77.487375 14.0141667,77.937375 C16.3508333,80.9418195 19.0586111,83.6495972 22.0619444,85.9840417 C22.3163889,86.1829306 22.5752778,86.2240417 22.7475,86.2240417 C23.0408333,86.2240417 23.3208333,86.107375 23.5341667,85.8929306 L27.7752778,81.6518195 C28.8319444,80.5962639 30.2219444,80.0151528 31.6897222,80.0151528 L31.6897222,80.0151528 Z M49.9997222,68.8884861 C44.9541667,68.8884861 40.2108333,66.9229306 36.6430556,63.3562639 C33.0763889,59.7884861 31.1108333,55.0451528 31.1108333,49.9995972 C31.1108333,44.9540417 33.0763889,40.2107083 36.6430556,36.6429306 C40.2108333,33.0762639 44.9541667,31.1107083 49.9997222,31.1107083 C55.0452778,31.1107083 59.7886111,33.0762639 63.3563889,36.6429306 C66.9230556,40.2107083 68.8886111,44.9540417 68.8886111,49.9995972 C68.8886111,55.0451528 66.9230556,59.7895972 63.3563889,63.3562639 C59.7897222,66.9229306 55.0452778,68.8884861 49.9997222,68.8884861 L49.9997222,68.8884861 Z M49.9997222,35.5551528 C46.1408333,35.5551528 42.5141667,37.0584861 39.7863889,39.7862639 C37.0586111,42.5140417 35.5552778,46.1407083 35.5552778,49.9995972 C35.5552778,53.8584861 37.0586111,57.4851528 39.7863889,60.2129306 C42.5141667,62.9407083 46.1408333,64.4440417 49.9997222,64.4440417 C53.8586111,64.4440417 57.4852778,62.9407083 60.2130556,60.2129306 C62.9408333,57.4851528 64.4441667,53.8584861 64.4441667,49.9995972 C64.4441667,46.1407083 62.9408333,42.5140417 60.2130556,39.7862639 C57.4852778,37.0584861 53.8586111,35.5551528 49.9997222,35.5551528 L49.9997222,35.5551528 Z" id="Shape" sketch:type="MSShapeGroup"></path>
        </g>
    </g>
</svg>