<?xml version="1.0" encoding="UTF-8" standalone="no"?>
<svg width="91px" height="102px" viewBox="0 0 91 102" version="1.1" xmlns="http://www.w3.org/2000/svg" xmlns:xlink="http://www.w3.org/1999/xlink" xmlns:sketch="http://www.bohemiancoding.com/sketch/ns">
    <title>Untitled 3</title>
    <description>Created with Sketch (http://www.bohemiancoding.com/sketch)</description>
    <defs></defs>
    <g id="Page-1" stroke="none" stroke-width="1" fill="none" fill-rule="evenodd" sketch:type="MSPage">
        <g id="Group" sketch:type="MSLayerGroup" transform="translate(0.000000, 1.000000)" fill="#000000">
            <path d="M84.0983607,100.294118 L16.2295082,100.294118 C12.5409836,100.294118 9.44262295,97.2058824 9.44262295,93.5294118 L9.44262295,80.2941176 C9.44262295,79.1176471 10.4754098,78.0882353 11.6557377,78.0882353 C12.8360656,78.0882353 13.8688525,79.1176471 13.8688525,80.2941176 L13.8688525,93.5294118 C13.8688525,94.8529412 14.9016393,95.8823529 16.2295082,95.8823529 L84.0983607,95.8823529 C85.4262295,95.8823529 86.4590164,94.8529412 86.4590164,93.5294118 L86.4590164,6.61764706 C86.4590164,5.29411765 85.4262295,4.26470588 84.0983607,4.26470588 L16.2295082,4.26470588 C14.9016393,4.26470588 13.8688525,5.29411765 13.8688525,6.61764706 L13.8688525,19.8529412 C13.8688525,21.0294118 12.8360656,22.0588235 11.6557377,22.0588235 C10.4754098,22.0588235 9.44262295,21.0294118 9.44262295,19.8529412 L9.44262295,6.61764706 C9.44262295,2.94117647 12.5409836,-0.147058824 16.2295082,-0.147058824 L84.0983607,-0.147058824 C87.7868852,-0.147058824 90.8852459,2.94117647 90.8852459,6.61764706 L90.8852459,93.5294118 C90.8852459,97.2058824 87.7868852,100.294118 84.0983607,100.294118 L84.0983607,100.294118 Z" id="Shape" sketch:type="MSShapeGroup"></path>
            <g transform="translate(29.508197, 26.470588)" id="Shape" sketch:type="MSShapeGroup">
                <path d="M20.6557377,28.6764706 C12.8360656,28.6764706 6.3442623,22.3529412 6.3442623,14.4117647 C6.3442623,6.47058824 12.6885246,0.147058824 20.6557377,0.147058824 C28.4754098,0.147058824 34.9672131,6.47058824 34.9672131,14.4117647 C34.9672131,22.3529412 28.4754098,28.6764706 20.6557377,28.6764706 L20.6557377,28.6764706 Z M20.6557377,4.70588235 C15.1967213,4.70588235 10.7704918,9.11764706 10.7704918,14.5588235 C10.7704918,20 15.1967213,24.4117647 20.6557377,24.4117647 C26.1147541,24.4117647 30.5409836,20 30.5409836,14.5588235 C30.5409836,9.11764706 26.1147541,4.70588235 20.6557377,4.70588235 L20.6557377,4.70588235 Z"></path>
                <path d="M41.3114754,43.9705882 L0,43.9705882 L0,41.7647059 C0,32.2058824 9.29508197,24.5588235 20.6557377,24.5588235 C32.0163934,24.5588235 41.3114754,32.3529412 41.3114754,41.7647059 L41.3114754,43.9705882 L41.3114754,43.9705882 Z M4.57377049,39.5588235 L36.5901639,39.5588235 C35.2622951,33.5294118 28.6229508,28.9705882 20.5081967,28.9705882 C12.6885246,28.9705882 5.90163934,33.6764706 4.57377049,39.5588235 L4.57377049,39.5588235 Z"></path>
            </g>
            <g transform="translate(0.000000, 27.941176)" id="Shape" sketch:type="MSShapeGroup">
                <path d="M19.6229508,3.82352941 L2.80327869,3.82352941 C1.62295082,3.82352941 0.590163934,2.79411765 0.590163934,1.61764706 C0.590163934,0.441176471 1.62295082,-0.588235294 2.80327869,-0.588235294 L19.6229508,-0.588235294 C20.8032787,-0.588235294 21.8360656,0.441176471 21.8360656,1.61764706 C21.8360656,2.79411765 20.8032787,3.82352941 19.6229508,3.82352941 L19.6229508,3.82352941 Z"></path>
                <path d="M19.6229508,17.5 L2.80327869,17.5 C1.62295082,17.5 0.590163934,16.4705882 0.590163934,15.2941176 C0.590163934,14.1176471 1.62295082,13.0882353 2.80327869,13.0882353 L19.6229508,13.0882353 C20.8032787,13.0882353 21.8360656,14.1176471 21.8360656,15.2941176 C21.8360656,16.4705882 20.8032787,17.5 19.6229508,17.5 L19.6229508,17.5 Z"></path>
                <path d="M19.6229508,31.0294118 L2.80327869,31.0294118 C1.62295082,31.0294118 0.590163934,30 0.590163934,28.8235294 C0.590163934,27.6470588 1.62295082,26.6176471 2.80327869,26.6176471 L19.6229508,26.6176471 C20.8032787,26.6176471 21.8360656,27.6470588 21.8360656,28.8235294 C21.8360656,30 20.8032787,31.0294118 19.6229508,31.0294118 L19.6229508,31.0294118 Z"></path>
                <path d="M19.6229508,44.7058824 L2.80327869,44.7058824 C1.62295082,44.7058824 0.590163934,43.6764706 0.590163934,42.5 C0.590163934,41.3235294 1.62295082,40.2941176 2.80327869,40.2941176 L19.6229508,40.2941176 C20.8032787,40.2941176 21.8360656,41.3235294 21.8360656,42.5 C21.8360656,43.6764706 20.8032787,44.7058824 19.6229508,44.7058824 L19.6229508,44.7058824 Z"></path>
            </g>
        </g>
    </g>
</svg>