<?xml version="1.0" encoding="UTF-8" standalone="no"?>
<svg width="64px" height="101px" viewBox="0 0 64 101" version="1.1" xmlns="http://www.w3.org/2000/svg" xmlns:xlink="http://www.w3.org/1999/xlink" xmlns:sketch="http://www.bohemiancoding.com/sketch/ns">
    <title>Untitled</title>
    <description>Created with Sketch (http://www.bohemiancoding.com/sketch)</description>
    <defs></defs>
    <g id="Page-1" stroke="none" stroke-width="1" fill="none" fill-rule="evenodd" sketch:type="MSPage">
        <path d="M14.0114676,5.52775285 C19.1019629,3.67036098 18.7579883,12.9787075 19.1019629,15.6932306 C19.6022896,21.2802127 20.7922114,28.0500688 22.6552702,33.1286947 C24.3455187,25.0015771 24.1792918,16.7050074 24.518329,8.41501833 C24.6829101,5.86994728 25.3626303,0.120093796 28.7497106,0.452417231 C36.7105014,0.965708872 27.5647263,27.7095195 32.8165111,31.0952702 C36.3698184,27.0300662 37.3902216,16.5355553 38.7447246,11.2874773 C39.2549262,9.08789103 39.9445213,2.13213122 44.839165,5.0243322 C48.57022,7.23049916 45.5155936,21.1107606 44.3355467,25.5082881 C43.1439791,30.080203 43.1439791,33.2915661 41.7878303,38.5445796 C41.458668,42.1014275 40.7805936,45.9955342 43.1439791,48.7034767 C47.381944,48.7034767 57.1267946,36.6773168 61.8683779,40.3986812 C65.0859396,42.7710098 63.4862107,45.8211467 61.2808231,47.2590214 C45.0152669,57.7634032 47.548171,70.7947593 39.7552529,72.3148922 C39.7552529,85.66212 38.9471594,86.1655407 40.2934333,99.4486071 C31.8290242,100.853578 22.9729118,100.506448 14.8689354,99.9684794 C15.4235739,92.9600743 15.1980977,98.2920557 15.7148826,90.5235841 C16.1032941,84.4874719 16.2168551,79.091329 16.392957,73.1654428 L16.2168551,72.4892797 C11.1428179,71.1287279 9.62208797,62.2497696 7.92196457,56.3238834 C6.06219744,49.8830604 8.26100176,44.1299166 5.88609559,37.8700618 C4.37853215,33.1270496 -2.03354993,21.3443741 1.99868854,17.894462 C4.37853215,15.8577471 5.71986862,17.5506225 7.58292737,21.949795 C9.11024056,25.5346107 9.87718877,36.0011537 14.357088,36.5095099 C16.7188277,33.7818254 6.99372681,8.10737238 14.0114676,5.52775285 Z" id="Shape" fill="#000000" sketch:type="MSShapeGroup"></path>
    </g>
</svg>