<?xml version="1.0" encoding="UTF-8" standalone="no"?>
<svg width="100px" height="100px" viewBox="0 0 100 100" version="1.1" xmlns="http://www.w3.org/2000/svg" xmlns:xlink="http://www.w3.org/1999/xlink" xmlns:sketch="http://www.bohemiancoding.com/sketch/ns">
    <title>Untitled 2</title>
    <description>Created with Sketch (http://www.bohemiancoding.com/sketch)</description>
    <defs></defs>
    <g id="Page-1" stroke="none" stroke-width="1" fill="none" fill-rule="evenodd" sketch:type="MSPage">
        <g id="uEA02-circle-plus" sketch:type="MSLayerGroup" fill="#000000">
            <g id="Page-1" sketch:type="MSShapeGroup">
                <g id="noun_139443_cc">
                    <path d="M50.1111111,5.55555556 C74.6666667,5.55555556 94.5555556,25.4444444 94.5555556,50 C94.5555556,74.5555556 74.6666667,94.4444444 50.1111111,94.4444444 C25.5555556,94.4444444 5.66666667,74.5555556 5.66666667,50 C5.66666667,25.4444444 25.5555556,5.55555556 50.1111111,5.55555556 L50.1111111,5.55555556 L50.1111111,5.55555556 Z M50.1111111,0 C22.4444444,0 0.111111111,22.3333333 0.111111111,50 C0.111111111,77.6666667 22.4444444,100 50.1111111,100 C77.7777778,100 100.111111,77.6666667 100.111111,50 C100.111111,22.3333333 77.6666667,0 50.1111111,0 L50.1111111,0 L50.1111111,0 Z" id="Shape"></path>
                    <path d="M73.4444444,53.5555556 L53.5555556,53.5555556 L53.5555556,73.3333333 C53.5555556,75.2222222 52,76.8888889 50,76.8888889 C48.1111111,76.8888889 46.4444444,75.3333333 46.4444444,73.3333333 L46.4444444,53.5555556 L26.6666667,53.5555556 C24.7777778,53.5555556 23.1111111,52 23.1111111,50 C23.1111111,48.1111111 24.6666667,46.4444444 26.6666667,46.4444444 L46.5555556,46.4444444 L46.5555556,26.6666667 C46.5555556,24.7777778 48.1111111,23.1111111 50.1111111,23.1111111 C52,23.1111111 53.6666667,24.6666667 53.6666667,26.6666667 L53.6666667,46.5555556 L73.5555556,46.5555556 C75.4444444,46.5555556 77.1111111,48.1111111 77.1111111,50.1111111 C77,51.8888889 75.4444444,53.5555556 73.4444444,53.5555556 L73.4444444,53.5555556 L73.4444444,53.5555556 Z" id="Shape"></path>
                </g>
            </g>
        </g>
    </g>
</svg>