<?xml version="1.0" encoding="UTF-8" standalone="no"?>
<svg width="96px" height="100px" viewBox="0 0 96 100" version="1.1" xmlns="http://www.w3.org/2000/svg" xmlns:xlink="http://www.w3.org/1999/xlink" xmlns:sketch="http://www.bohemiancoding.com/sketch/ns">
    <title>Untitled</title>
    <description>Created with Sketch (http://www.bohemiancoding.com/sketch)</description>
    <defs></defs>
    <g id="Page-1" stroke="none" stroke-width="1" fill="none" fill-rule="evenodd" sketch:type="MSPage">
        <g id="uEA04-gps" sketch:type="MSLayerGroup" fill="#000000">
            <g id="Page-1" sketch:type="MSShapeGroup">
                <g id="Black-no-shadow-on-white">
                    <g id="Group" transform="translate(-0.418646, 0.044944)">
                        <path d="M56.5952,92.835905 C69.6975258,90.1818409 77.9363449,83.2790836 79.8282396,75.4483429 C81.8539044,66.5550373 76.7212644,60.8486432 69.9682515,56.6015148 C60.918052,50.8935557 49.3023284,48.5047415 42.6830859,39.4784201 C40.6566247,36.6905574 39.1708185,33.3737599 39.0354557,29.3918813 C41.466413,37.8853557 64.4287267,43.3280649 79.1506291,47.8396607 C86.7150227,50.2284749 93.1989024,53.8128696 94.9546379,59.7876435 C97.9270462,69.6089323 88.3361914,80.7580357 80.6380276,85.5364465 C73.7496521,90.0496072 65.1047445,92.305405 56.5952,92.835905 L56.5952,92.835905 L56.5952,92.835905 Z" id="Shape"></path>
                        <path d="M64.1595936,1.78398172 C78.4769999,5.63206159 89.6890237,14.9244155 96.0359479,26.7370348 C90.0927233,18.5080279 81.4486122,12.2703515 70.7780398,9.4824888 C46.7352122,3.11179618 22.0171627,17.1802135 15.6686459,40.8062345 C9.18556251,64.4338206 23.5029689,88.7233577 47.5450002,95.0932677 C58.0802098,97.8811304 68.8869415,96.6855499 78.0709114,92.437639 C66.4551878,99.6048638 52.1385778,102.126694 37.8203752,98.4100655 C10.6713687,91.2436231 -5.40256949,63.9009733 1.89109839,37.222622 C9.18556251,10.5434885 37.0097909,-5.25022691 64.1595936,1.78398172 L64.1595936,1.78398172 L64.1595936,1.78398172 Z" id="Shape"></path>
                    </g>
                </g>
            </g>
        </g>
    </g>
</svg>